<?xml version="1.0" standalone="no"?>
<!DOCTYPE svg PUBLIC "-//W3C//DTD SVG 20010904//EN"
 "http://www.w3.org/TR/2001/REC-SVG-20010904/DTD/svg10.dtd">
<svg version="1.0" xmlns="http://www.w3.org/2000/svg"
 width="125.000000pt" height="125.000000pt" viewBox="0 0 125.000000 125.000000"
 preserveAspectRatio="xMidYMid meet">
<metadata>
Created by potrace 1.14, written by Peter Selinger 2001-2017
</metadata>
<g transform="translate(0.000000,125.000000) scale(0.100000,-0.100000)"
fill="#000000" stroke="none">
<path d="M883 1163 c-12 -2 -36 -20 -53 -39 -46 -53 -39 -113 18 -161 24 -20
27 -30 27 -83 l1 -60 -21 20 c-12 11 -29 20 -38 20 -10 0 -14 5 -11 15 5 12
-2 15 -30 15 l-36 0 0 -46 c0 -27 -4 -43 -10 -39 -5 3 -10 17 -10 31 0 13 -6
24 -12 25 -120 5 -113 7 -145 -41 -119 -176 -151 -233 -123 -215 5 3 41 55 81
115 39 61 75 110 79 110 5 0 44 -40 89 -88 l81 -88 97 -12 c54 -6 120 -19 146
-28 26 -9 50 -14 52 -12 2 2 -23 33 -55 68 l-59 65 -1 103 0 103 34 29 c40 36
51 79 32 125 -22 51 -77 79 -133 68z"/>
<path d="M429 861 c-11 -4 -15 -19 -14 -54 0 -27 -3 -51 -7 -53 -5 -3 -8 6 -8
20 0 18 -6 26 -17 27 -51 2 -114 1 -117 -2 -23 -28 -193 -309 -187 -309 8 0
61 63 61 73 0 11 126 194 135 195 6 0 37 -25 70 -57 33 -31 65 -60 71 -64 8
-4 29 21 57 66 54 86 59 101 32 102 -11 0 -21 7 -21 15 -1 8 -2 20 -3 26 -1
14 -31 23 -52 15z"/>
<path d="M532 722 c-34 -55 -62 -102 -62 -105 0 -24 26 5 75 84 62 100 71 119
59 119 -5 0 -37 -44 -72 -98z"/>
<path d="M636 744 c-9 -8 -16 -20 -16 -25 0 -11 30 -12 31 -1 0 4 2 15 4 25 4
21 1 21 -19 1z"/>
<path d="M210 650 c-59 -95 -69 -119 -44 -102 20 13 124 191 115 197 -5 3 -37
-40 -71 -95z"/>
<path d="M590 742 c0 -6 -3 -17 -6 -26 -4 -11 -1 -16 10 -16 9 0 16 7 16 15 0
8 0 18 1 22 0 4 -4 9 -10 11 -6 2 -11 -1 -11 -6z"/>
<path d="M583 673 c-3 -10 -8 -21 -10 -25 -2 -5 2 -8 10 -8 8 0 17 11 19 25 6
28 -9 34 -19 8z"/>
<path d="M619 683 c0 -5 -2 -16 -4 -25 -3 -15 0 -16 16 -8 23 13 25 40 4 40
-8 0 -15 -3 -16 -7z"/>
<path d="M305 672 c-14 -10 -18 -42 -5 -42 12 0 24 24 18 39 -1 6 -7 7 -13 3z"/>
<path d="M256 644 c-9 -22 -8 -24 9 -24 8 0 15 9 15 20 0 24 -15 27 -24 4z"/>
<path d="M645 629 c-25 -6 -21 -7 23 -9 28 -1 55 -3 60 -4 4 -1 30 -5 57 -10
125 -19 270 -76 299 -118 21 -30 20 -44 -5 -79 -25 -35 -17 -37 28 -6 66 44
75 113 21 149 -21 14 -134 54 -178 63 -97 19 -248 27 -305 14z"/>
<path d="M290 601 c-6 -12 -6 -22 -1 -26 10 -6 24 11 27 33 3 19 -14 14 -26
-7z"/>
<path d="M251 592 c-10 -19 -6 -32 10 -32 10 0 18 39 9 45 -5 3 -14 -3 -19
-13z"/>
<path d="M538 605 c-2 -2 -28 -5 -58 -8 -87 -9 -273 -67 -400 -126 -59 -27
-48 -26 56 4 156 45 282 66 399 67 208 0 355 -57 355 -138 0 -36 -33 -67 -83
-79 -38 -10 -34 -24 6 -18 104 15 177 61 177 112 0 27 -21 65 -50 89 -26 23
-113 59 -180 75 -55 14 -214 29 -222 22z"/>
<path d="M95 436 c-9 -13 -18 -36 -21 -50 -6 -34 21 -46 44 -21 16 16 16 17
-5 6 -21 -11 -23 -9 -23 13 0 13 9 34 20 47 14 17 18 19 14 7 -3 -10 -1 -18 5
-18 6 0 11 9 11 20 0 27 -26 25 -45 -4z"/>
<path d="M531 421 c-25 -48 -33 -53 -21 -11 5 18 5 32 -1 36 -6 3 -11 4 -13 3
-8 -12 -46 -81 -46 -85 0 -13 18 -1 28 19 l11 22 0 -23 c1 -19 4 -21 20 -12
11 5 23 19 26 31 4 11 9 19 11 16 3 -2 0 -16 -5 -30 -5 -14 -7 -28 -3 -31 3
-4 11 15 18 41 16 63 1 77 -25 24z"/>
<path d="M640 428 c-25 -41 -23 -74 5 -71 26 2 63 10 74 18 5 3 12 1 16 -5 3
-5 15 -10 26 -10 16 0 18 5 13 25 -5 21 -3 24 10 19 10 -4 15 -13 12 -20 -7
-18 13 -29 27 -15 7 7 14 7 24 -1 11 -8 12 -7 8 6 -3 9 -7 23 -10 31 -4 12 -9
14 -24 6 -14 -8 -21 -7 -24 2 -6 18 -42 -6 -41 -27 2 -17 -15 -23 -17 -6 -1 6
-2 15 -3 22 -2 20 -24 20 -38 0 -15 -22 -53 -44 -61 -36 -8 9 13 61 31 76 13
11 15 11 9 -4 -3 -10 -2 -18 3 -18 6 0 10 9 10 20 0 31 -28 24 -50 -12z"/>
<path d="M157 409 c-21 -12 -23 -49 -2 -49 8 0 17 11 21 25 8 32 4 36 -19 24z"/>
<path d="M194 405 c-4 -11 -9 -23 -11 -27 -2 -4 12 -5 31 -3 30 4 36 1 44 -23
6 -15 11 -20 11 -11 1 9 13 24 27 34 15 9 24 12 20 7 -13 -21 10 -18 30 4 20
21 20 23 3 27 -10 3 -20 0 -21 -5 -3 -7 -11 -7 -25 1 -19 9 -23 8 -28 -10 -4
-12 -10 -17 -14 -11 -3 5 -15 12 -26 14 -11 1 -23 7 -27 13 -4 5 -10 1 -14
-10z m106 -15 c0 -5 -5 -10 -11 -10 -5 0 -7 5 -4 10 3 6 8 10 11 10 2 0 4 -4
4 -10z"/>
<path d="M387 414 c-12 -12 -8 -26 5 -18 7 4 8 3 4 -5 -4 -6 -11 -9 -16 -6 -5
3 -11 1 -14 -4 -10 -15 13 -24 28 -11 11 8 15 8 20 -2 3 -7 4 0 2 16 -2 30
-16 43 -29 30z"/>
<path d="M571 403 c0 -6 -4 -20 -7 -30 -5 -14 -4 -15 5 -7 7 7 11 20 8 30 -3
11 -5 14 -6 7z"/>
<path d="M383 280 c-9 -36 -8 -40 8 -40 10 0 21 5 25 12 5 8 2 9 -9 5 -19 -7
-21 6 -7 38 7 18 9 17 20 -13 11 -30 13 -31 25 -15 7 10 11 21 9 25 -3 5 4 8
15 8 18 0 19 -3 11 -25 -7 -19 -6 -25 5 -25 14 0 15 35 2 57 -10 17 -37 5 -47
-21 l-9 -21 0 21 c-1 17 -18 34 -35 34 -1 0 -7 -18 -13 -40z"/>
<path d="M506 295 c-3 -8 -2 -25 3 -37 8 -22 9 -21 25 11 10 18 15 35 13 38
-3 2 -8 -5 -12 -16 -3 -12 -11 -21 -16 -21 -6 0 -6 8 1 20 6 11 7 20 1 20 -5
0 -11 -7 -15 -15z"/>
</g>
</svg>
